<?xml version="1.0" encoding="UTF-8"?>
<!DOCTYPE svg PUBLIC "-//W3C//DTD SVG 1.1//EN" "http://www.w3.org/Graphics/SVG/1.1/DTD/svg11.dtd">
<!-- Creator: CorelDRAW 2017 -->
<svg xmlns="http://www.w3.org/2000/svg" xml:space="preserve" width="73.6598mm" height="46.0586mm" version="1.1" style="shape-rendering:geometricPrecision; text-rendering:geometricPrecision; image-rendering:optimizeQuality; fill-rule:evenodd; clip-rule:evenodd"
viewBox="0 0 7366 4606"
 xmlns:xlink="http://www.w3.org/1999/xlink">
 <defs>
  <style type="text/css">
   <![CDATA[
    .str0 {stroke:#414E5E;stroke-width:15.88}
    .fil2 {fill:none}
    .fil0 {fill:#212529}
    .fil1 {fill:#FFF5C7}
   ]]>
  </style>
 </defs>
 <g id="Capa_x0020_1">
  <metadata id="CorelCorpID_0Corel-Layer"/>
  <g id="_1726434684896">
   <rect class="fil0" x="-2" y="2" width="7370" height="4603"/>
   <g id="_2189749139856">
    <path class="fil1" d="M3762 713c-8,-15 -22,-31 -28,-47 -9,-23 -1,-29 20,-19 32,15 75,63 67,95 -13,51 -50,-11 -60,-30l0 1z"/>
    <path class="fil1" d="M3776 347c16,-8 41,30 55,51 8,11 46,58 29,67 -29,16 -98,-77 -84,-119l1 0z"/>
    <path class="fil1" d="M3775 872c-20,-22 -44,-59 -53,-82 -4,-11 -10,-28 7,-26 20,2 41,27 52,46 9,14 23,41 25,60 4,32 -19,16 -32,3l1 0z"/>
    <path class="fil1" d="M3510 775c-30,-2 -37,-23 -50,-48 -11,-20 -27,-44 -26,-69 42,-1 89,67 76,117z"/>
    <path class="fil1" d="M3564 836c13,3 25,22 39,35 9,8 41,42 20,63 -19,20 -56,-39 -68,-74 -4,-10 -10,-29 9,-25l0 1z"/>
    <path class="fil1" d="M3558 335c-12,-16 -22,-37 -23,-53 -1,-10 1,-18 13,-15 22,6 53,51 64,76 10,21 0,28 -13,25 -15,-4 -33,-22 -42,-34z"/>
    <path class="fil1" d="M3966 833c-36,3 -82,-85 -69,-109 21,0 20,3 30,16 16,22 43,64 39,93z"/>
    <path class="fil1" d="M3622 794c-23,-10 -55,-76 -56,-108 30,6 41,27 56,48 15,20 37,49 1,60l-1 0z"/>
    <path class="fil1" d="M3836 611c-22,-3 -45,-62 -52,-79 -4,-9 -12,-48 9,-34 19,13 53,65 59,91 3,13 -1,23 -16,22l0 1z"/>
    <path class="fil1" d="M3710 565c-18,-23 -29,-37 -41,-65 -6,-13 -9,-41 13,-27 20,13 49,56 56,69 18,35 -7,49 -28,22z"/>
    <path class="fil1" d="M3704 331c13,15 36,49 26,63 -16,11 -89,-72 -85,-96 14,-24 51,24 58,34l1 -1z"/>
    <path class="fil1" d="M3498 605c-27,-6 -46,-55 -56,-91 -4,-13 1,-21 15,-14 7,3 11,8 15,13 10,13 26,39 34,53 4,6 7,16 8,25 1,11 -3,16 -15,13l1 1z"/>
    <path class="fil1" d="M3975 652c-11,3 -18,1 -25,-3 -17,-13 -38,-56 -41,-77 -3,-15 3,-25 18,-15 11,8 27,29 39,49 11,20 18,40 10,47l0 -1z"/>
    <path class="fil1" d="M3771 248c10,2 30,23 39,32 20,16 43,36 34,53 -8,18 -22,8 -34,-2 -18,-15 -30,-37 -43,-58 -6,-10 -15,-29 3,-25z"/>
    <path class="fil1" d="M3529 439c-6,-13 -18,-30 -7,-43 13,-5 20,3 43,27 8,9 14,22 16,33 2,10 1,17 -4,21 -18,13 -42,-26 -48,-38l-1 -1z"/>
    <path class="fil1" d="M3986 470c-30,3 -60,-58 -55,-85 20,-1 27,15 39,30 11,15 25,30 15,55z"/>
    <path class="fil1" d="M3632 662c-11,3 -25,-15 -37,-34 -6,-11 -12,-23 -15,-33 -4,-13 -6,-25 13,-20 12,4 24,16 30,29 8,16 20,53 10,58l-1 0z"/>
    <path class="fil1" d="M3475 400c19,35 11,39 -4,35 -36,-11 -77,-90 -33,-75 16,5 29,26 37,41l1 0z"/>
   </g>
   <g id="_2189749141008">
    <path class="fil2 str0" d="M1513 1756c-170,35 -405,33 -652,-97 111,-4 365,69 439,200 53,95 -4,114 -92,123 -81,9 -183,-4 -279,-34 -73,-23 -143,-60 -197,-102 -53,-42 -157,-126 -39,-139 101,-11 264,18 411,80 89,37 188,100 250,158 211,200 -334,135 -423,65"/>
    <path class="fil2 str0" d="M1223 1665c96,60 202,115 219,198 -4,58 -58,74 -112,74 -122,1 -332,-60 -443,-126 -53,-32 -107,-77 -85,-121 9,-18 41,-35 156,-34"/>
   </g>
   <g id="_2189749140336">
    <path class="fil2 str0" d="M7327 754c-170,35 -405,33 -652,-97 111,-4 365,69 439,200 53,95 -4,114 -92,123 -81,9 -183,-4 -279,-34 -73,-23 -143,-60 -197,-102 -53,-42 -157,-126 -39,-139 101,-11 264,18 411,80 89,37 188,100 250,158 211,200 -334,135 -423,65"/>
    <path class="fil2 str0" d="M7036 663c96,60 202,115 219,198 -4,58 -58,74 -112,74 -122,1 -332,-60 -443,-126 -53,-32 -107,-77 -85,-121 9,-18 41,-35 156,-34"/>
   </g>
   <g id="_2189749140368">
    <path class="fil2 str0" d="M341 613c170,35 405,33 652,-97 -111,-4 -365,69 -439,200 -53,95 4,114 92,123 81,9 183,-4 279,-34 73,-23 143,-60 197,-102 53,-42 157,-126 39,-139 -101,-11 -264,18 -411,80 -89,37 -188,100 -250,158 -211,200 334,135 423,65"/>
    <path class="fil2 str0" d="M632 522c-96,60 -202,115 -219,198 4,58 58,74 112,74 122,1 332,-60 443,-126 53,-32 107,-77 85,-121 -9,-18 -41,-35 -156,-34"/>
   </g>
   <g id="_2189749138160">
    <path class="fil2 str0" d="M2175 2014c170,35 405,33 652,-97 -111,-4 -365,69 -439,200 -53,95 4,114 92,123 81,9 183,-4 279,-34 73,-23 143,-60 197,-102 53,-42 157,-126 39,-139 -101,-11 -264,18 -411,80 -89,37 -188,100 -250,158 -211,200 334,135 423,65"/>
    <path class="fil2 str0" d="M2465 1923c-96,60 -202,115 -219,198 4,58 58,74 112,74 122,1 332,-60 443,-126 53,-32 107,-77 85,-121 -9,-18 -41,-35 -156,-34"/>
   </g>
   <g id="_2189749135632">
    <path class="fil1" d="M316 2057c-6,-11 -18,-25 -23,-37 -7,-18 0,-23 16,-15 25,12 61,51 54,77 -10,41 -40,-9 -48,-24l1 0z"/>
    <path class="fil1" d="M327 1763c13,-7 34,25 44,41 6,9 37,47 23,55 -23,13 -79,-62 -68,-96z"/>
    <path class="fil1" d="M327 2186c-16,-18 -36,-48 -42,-67 -3,-9 -8,-23 6,-21 16,2 32,22 42,37 7,11 18,33 20,49 3,26 -15,13 -25,2l1 0z"/>
    <path class="fil1" d="M113 2108c-24,-1 -30,-19 -41,-38 -9,-16 -22,-36 -21,-56 34,-1 72,53 62,94z"/>
    <path class="fil1" d="M157 2157c11,3 20,18 31,28 7,6 33,34 16,51 -16,16 -45,-32 -55,-60 -3,-8 -8,-23 7,-20l1 0z"/>
    <path class="fil1" d="M151 1753c-10,-13 -18,-30 -18,-42 -1,-8 1,-15 11,-11 17,5 42,41 52,62 8,17 0,22 -10,20 -13,-3 -27,-18 -34,-27l-1 0z"/>
    <path class="fil1" d="M481 2155c-29,3 -67,-69 -55,-88 16,0 16,3 24,13 13,18 34,51 31,75z"/>
    <path class="fil1" d="M204 2123c-18,-8 -44,-61 -46,-87 24,4 32,22 46,39 12,16 30,39 0,48z"/>
    <path class="fil1" d="M376 1976c-17,-2 -37,-49 -42,-63 -3,-8 -10,-39 8,-27 15,10 43,53 48,74 3,10 -1,19 -13,17l-1 0z"/>
    <path class="fil1" d="M275 1939c-15,-18 -23,-30 -32,-52 -4,-10 -7,-33 10,-22 16,11 40,46 45,56 15,28 -5,40 -23,18z"/>
    <path class="fil1" d="M269 1750c10,11 29,40 21,51 -13,9 -72,-58 -69,-78 11,-19 41,20 47,27l1 1z"/>
    <path class="fil1" d="M103 1971c-22,-4 -37,-44 -46,-73 -3,-11 1,-17 12,-11 5,3 9,6 12,11 8,11 21,31 27,42 3,5 6,13 6,20 1,10 -2,13 -11,11l-1 0z"/>
    <path class="fil1" d="M488 2008c-10,2 -15,1 -20,-3 -14,-10 -30,-45 -34,-62 -2,-11 3,-21 14,-13 9,6 22,23 31,39 9,16 14,32 8,38l1 0z"/>
    <path class="fil1" d="M323 1683c8,2 24,19 32,25 16,13 35,29 28,43 -7,15 -18,6 -27,-2 -15,-12 -25,-30 -34,-47 -4,-8 -12,-23 2,-20z"/>
    <path class="fil1" d="M129 1836c-5,-10 -15,-25 -6,-34 10,-4 16,3 34,22 6,7 11,17 13,27 2,8 1,14 -3,16 -15,10 -34,-21 -39,-30l0 -1z"/>
    <path class="fil1" d="M497 1862c-24,3 -48,-47 -44,-68 16,-1 22,12 32,25 10,12 20,24 12,44z"/>
    <path class="fil1" d="M211 2017c-9,2 -20,-12 -30,-27 -5,-9 -10,-18 -13,-27 -4,-11 -5,-20 10,-16 10,3 20,13 25,23 7,13 16,43 8,46z"/>
    <path class="fil1" d="M85 1806c16,28 10,32 -3,28 -29,-9 -62,-73 -27,-61 13,4 23,21 30,33z"/>
   </g>
   <g id="_2189749134128">
    <path class="fil2 str0" d="M285 3043c170,35 405,33 652,-97 -111,-4 -365,69 -439,200 -53,95 4,114 92,123 81,9 183,-4 279,-34 73,-23 143,-60 197,-102 53,-42 157,-126 39,-139 -101,-11 -264,18 -411,80 -89,37 -188,100 -250,158 -211,200 334,135 423,65"/>
    <path class="fil2 str0" d="M575 2952c-96,60 -202,115 -219,198 4,58 58,74 112,74 122,1 332,-60 443,-126 53,-32 107,-77 85,-121 -9,-18 -41,-35 -156,-34"/>
   </g>
   <g id="_2189749133552">
    <path class="fil2 str0" d="M1614 3832c170,-35 405,-33 652,97 -111,4 -365,-69 -439,-200 -53,-95 4,-114 92,-123 81,-9 183,4 279,34 73,23 143,60 197,102 53,42 157,126 39,139 -101,11 -264,-18 -411,-80 -89,-37 -188,-100 -250,-158 -211,-200 334,-135 423,-65"/>
    <path class="fil2 str0" d="M1905 3923c-96,-60 -202,-115 -219,-198 4,-58 58,-74 112,-74 122,-1 332,60 443,126 53,32 107,77 85,121 -9,18 -41,35 -156,34"/>
   </g>
   <g id="_2189749132560">
    <path class="fil2 str0" d="M5102 1067c-170,-35 -405,-33 -652,97 111,4 365,-69 439,-200 53,-95 -4,-114 -92,-123 -81,-9 -183,4 -279,34 -73,23 -143,60 -197,102 -53,42 -157,126 -39,139 101,11 264,-18 411,-80 89,-37 188,-100 250,-158 211,-200 -334,-135 -423,-65"/>
    <path class="fil2 str0" d="M4812 1158c96,-60 202,-115 219,-198 -4,-58 -58,-74 -112,-74 -122,-1 -332,60 -443,126 -53,32 -107,77 -85,121 9,18 41,35 156,34"/>
   </g>
   <g id="_2189749133136">
    <path class="fil2 str0" d="M6242 3475c170,35 405,33 652,-97 -111,-4 -365,69 -439,200 -53,95 4,114 92,123 81,9 183,-4 279,-34 73,-23 143,-60 197,-102 53,-42 157,-126 39,-139 -101,-11 -264,18 -411,80 -89,37 -188,100 -250,158 -211,200 334,135 423,65"/>
    <path class="fil2 str0" d="M6533 3383c-96,60 -202,115 -219,198 4,58 58,74 112,74 122,1 332,-60 443,-126 53,-32 107,-77 85,-121 -9,-18 -41,-35 -156,-34"/>
   </g>
   <g id="_2189749128208">
    <path class="fil1" d="M5888 4144c-9,-16 -24,-34 -30,-51 -10,-25 -1,-32 23,-21 35,17 82,68 74,104 -14,56 -55,-13 -65,-32l-1 1z"/>
    <path class="fil1" d="M5903 3743c18,-10 46,34 61,56 8,12 51,64 32,74 -32,17 -107,-85 -93,-130l0 -1z"/>
    <path class="fil1" d="M5903 4320c-22,-24 -48,-65 -58,-90 -4,-12 -11,-31 8,-29 22,3 44,30 57,50 10,15 25,45 27,66 4,36 -21,18 -35,3z"/>
    <path class="fil1" d="M5612 4213c-33,-2 -41,-25 -55,-52 -12,-22 -30,-48 -29,-76 47,-1 98,73 83,128l1 0z"/>
    <path class="fil1" d="M5671 4280c15,4 27,25 43,38 10,9 44,47 22,70 -21,22 -62,-43 -75,-81 -4,-11 -11,-32 10,-27z"/>
    <path class="fil1" d="M5665 3730c-13,-18 -24,-41 -25,-58 -1,-11 1,-20 15,-16 23,7 58,56 70,83 11,23 0,30 -14,27 -17,-4 -36,-24 -46,-37l0 1z"/>
    <path class="fil1" d="M6113 4276c-39,4 -90,-93 -75,-120 23,0 22,4 32,18 18,24 47,70 43,101z"/>
    <path class="fil1" d="M5735 4234c-25,-11 -60,-83 -62,-118 32,6 44,29 62,53 16,22 41,53 1,65l-1 0z"/>
    <path class="fil1" d="M5970 4033c-23,-3 -49,-67 -57,-87 -4,-10 -13,-53 10,-37 21,14 58,72 65,100 3,14 -1,25 -18,23l0 1z"/>
    <path class="fil1" d="M5832 3983c-20,-25 -32,-41 -44,-71 -6,-14 -10,-45 14,-29 22,15 54,62 62,75 20,38 -8,54 -31,25z"/>
    <path class="fil1" d="M5825 3726c14,16 39,55 29,70 -18,12 -98,-79 -93,-106 15,-26 55,27 64,37l0 -1z"/>
    <path class="fil1" d="M5598 4027c-29,-6 -49,-60 -62,-100 -4,-15 1,-23 16,-15 8,4 12,9 16,15 10,15 29,42 37,58 4,7 8,18 9,27 1,13 -3,18 -16,15z"/>
    <path class="fil1" d="M6122 4078c-13,3 -20,1 -27,-4 -19,-14 -42,-62 -46,-84 -3,-16 3,-28 19,-17 13,9 30,32 43,54 12,22 20,44 11,51z"/>
    <path class="fil1" d="M5898 3635c11,3 32,26 43,35 22,18 47,39 38,58 -9,20 -23,8 -37,-2 -20,-16 -34,-41 -47,-64 -6,-11 -17,-31 3,-27z"/>
    <path class="fil1" d="M5633 3844c-7,-14 -20,-33 -8,-47 14,-5 22,3 46,30 9,10 15,23 18,36 3,11 1,19 -4,23 -20,14 -46,-29 -53,-42l1 0z"/>
    <path class="fil1" d="M6135 3879c-32,3 -65,-64 -60,-93 22,-1 30,16 43,34 13,16 27,33 16,60l0 -1z"/>
    <path class="fil1" d="M5746 4089c-11,3 -28,-16 -41,-37 -7,-12 -13,-25 -17,-36 -5,-15 -7,-28 14,-22 13,4 27,18 34,32 10,18 22,58 10,63z"/>
    <path class="fil1" d="M5574 3803c21,38 13,43 -4,38 -39,-12 -84,-99 -36,-83 18,6 32,29 41,44l0 1z"/>
   </g>
   <g id="_2189749126064">
    <path class="fil2 str0" d="M6231 2156c-170,-35 -405,-33 -652,97 111,4 365,-69 439,-200 53,-95 -4,-114 -92,-123 -81,-9 -183,4 -279,34 -73,23 -143,60 -197,102 -53,42 -157,126 -39,139 101,11 264,-18 411,-80 89,-37 188,-100 250,-158 211,-200 -334,-135 -423,-65"/>
    <path class="fil2 str0" d="M5942 2247c96,-60 202,-115 219,-198 -4,-58 -58,-74 -112,-74 -122,-1 -332,60 -443,126 -53,32 -107,77 -85,121 9,18 41,35 156,34"/>
   </g>
   <g id="_2189749126448">
    <path class="fil2 str0" d="M3523 3099c170,-35 405,-33 652,97 -111,4 -365,-69 -439,-200 -53,-95 4,-114 92,-123 81,-9 183,4 279,34 73,23 143,60 197,102 53,42 157,126 39,139 -101,11 -264,-18 -411,-80 -89,-37 -188,-100 -250,-158 -211,-200 334,-135 423,-65"/>
    <path class="fil2 str0" d="M3813 3191c-96,-60 -202,-115 -219,-198 4,-58 58,-74 112,-74 122,-1 332,60 443,126 53,32 107,77 85,121 -9,18 -41,35 -156,34"/>
   </g>
  </g>
 </g>
</svg>
