<?xml version="1.0" encoding="UTF-8"?>
<!DOCTYPE svg PUBLIC "-//W3C//DTD SVG 1.1//EN" "http://www.w3.org/Graphics/SVG/1.1/DTD/svg11.dtd">
<!-- Creator: CorelDRAW 2017 -->
<svg xmlns="http://www.w3.org/2000/svg" xml:space="preserve" width="14.17mm" height="16.99mm" version="1.1" style="shape-rendering:geometricPrecision; text-rendering:geometricPrecision; image-rendering:optimizeQuality; fill-rule:evenodd; clip-rule:evenodd"
viewBox="0 0 1417 1699"
 xmlns:xlink="http://www.w3.org/1999/xlink">
 <defs>
  <style type="text/css">
   <![CDATA[
    .fil0 {fill:#EC1F26}
   ]]>
  </style>
 </defs>
 <g id="Capa_x0020_1">
  <metadata id="CorelCorpID_0Corel-Layer"/>
  <g id="_2189855317184">
   <path class="fil0" d="M1298 1565c-85,44 -71,3 -137,37 -44,23 -18,44 -99,86 -21,11 -58,13 -74,9 -7,-2 -11,-2 -16,-4 -5,-2 -10,-4 -15,-7 -31,-16 -46,-52 -41,-86 4,-26 23,-49 24,-81 1,-30 -18,-75 7,-132 26,-58 83,-98 147,-93 11,1 19,3 30,5 52,9 82,53 108,68 28,17 60,14 87,30 71,41 37,138 -19,168z"/>
   <path class="fil0" d="M855 1389l5 10c24,46 -24,112 -86,95 -73,-21 -65,-144 -34,-160 23,-12 44,-7 66,7 16,10 36,26 48,48z"/>
   <path class="fil0" d="M915 1198l5 10c24,46 -24,112 -86,95 -45,-13 -60,-65 -57,-106 2,-30 12,-47 25,-55l5 -2c35,-15 90,26 107,58z"/>
   <path class="fil0" d="M1104 1097l7 13c24,46 -24,112 -86,95 -73,-21 -66,-143 -34,-160 23,-12 40,-7 66,8 13,8 38,27 47,45z"/>
   <path class="fil0" d="M1295 1157l7 13c24,45 -24,112 -86,95 -73,-21 -66,-143 -34,-160 23,-12 40,-7 66,8 13,8 38,27 47,45z"/>
   <path class="fil0" d="M1402 714c16,31 21,51 5,87 -15,34 -38,50 -69,66 -49,25 -59,-4 -121,28 -39,21 -22,46 -92,83 -29,15 -68,17 -93,8 -5,-2 -12,-5 -17,-7 -31,-16 -45,-51 -41,-84 6,-53 34,-36 20,-128 -4,-27 2,-63 11,-86 35,-86 127,-115 208,-76 9,4 10,5 19,11 48,32 43,49 93,59 27,5 62,13 76,40z"/>
   <path class="fil0" d="M914 680c12,22 17,35 8,62 -24,75 -151,66 -144,-59 7,-111 112,-49 136,-3z"/>
   <path class="fil0" d="M973 489c11,22 16,35 8,62 -12,36 -53,56 -88,45 -72,-23 -64,-143 -32,-160 23,-12 44,-7 66,7 14,9 37,28 47,46z"/>
   <path class="fil0" d="M1164 390c11,22 16,35 8,62 -25,76 -153,65 -143,-61 9,-113 115,-40 136,-1z"/>
   <path class="fil0" d="M1354 450c37,71 -28,123 -81,107 -44,-14 -58,-65 -55,-106 9,-113 115,-40 136,-1l0 0z"/>
   <path class="fil0" d="M625 384c16,31 21,51 5,87 -15,34 -38,50 -69,66 -49,25 -59,-4 -121,28 -39,21 -22,46 -92,83 -29,15 -68,17 -93,8 -5,-2 -12,-5 -17,-7 -31,-16 -45,-51 -41,-84 6,-53 34,-36 20,-128 -4,-27 2,-63 11,-86 35,-86 127,-115 208,-76 9,4 10,5 19,11 48,32 43,49 93,59 27,5 62,13 76,40z"/>
   <path class="fil0" d="M136 350c12,22 17,35 8,62 -24,75 -151,66 -144,-59 7,-111 112,-49 136,-3z"/>
   <path class="fil0" d="M196 159c11,22 16,35 8,62 -12,36 -53,56 -88,45 -72,-23 -64,-143 -32,-160 23,-12 44,-7 66,7 14,9 37,28 47,46z"/>
   <path class="fil0" d="M386 60c11,22 16,35 8,62 -25,76 -153,65 -143,-61 9,-113 115,-40 136,-1z"/>
   <path class="fil0" d="M577 120c37,71 -28,123 -81,107 -44,-14 -58,-65 -55,-106 9,-113 115,-40 136,-1l0 0z"/>
  </g>
 </g>
</svg>
